<svg width="218" height="39" viewBox="0 0 218 39" fill="none" xmlns="http://www.w3.org/2000/svg">
<path d="M2.17339 37.7449C1.30939 37.3669 1.04839 36.7369 1.39039 35.8549L14.7824 4.18388C15.0704 3.44588 15.6014 3.07688 16.3754 3.07688H16.5374C17.2754 3.09488 17.7974 3.46388 18.1034 4.18388L31.4954 35.8549C31.8554 36.7369 31.6034 37.3669 30.7394 37.7449C29.8574 38.1049 29.2454 37.8529 28.9034 36.9889L25.3124 28.4839H7.6274L4.03639 36.9889C3.67639 37.8529 3.05539 38.1049 2.17339 37.7449ZM8.7884 25.6489H24.1244L16.4564 7.55888L8.7884 25.6489ZM39.5013 37.8799C39.0513 37.8799 38.7003 37.7539 38.4483 37.5019C38.1963 37.2499 38.0703 36.8989 38.0703 36.4489V4.48088C38.0703 4.03088 38.1963 3.67988 38.4483 3.42788C38.7003 3.17588 39.0513 3.04988 39.5013 3.04988C39.9333 3.04988 40.2753 3.17588 40.5273 3.42788C40.7793 3.67988 40.9053 4.03088 40.9053 4.48088V36.4489C40.9053 36.8989 40.7793 37.2499 40.5273 37.5019C40.2753 37.7539 39.9333 37.8799 39.5013 37.8799ZM93.136 12.3109C96.034 12.3109 98.104 13.0489 99.346 14.5249C100.606 16.0009 101.236 18.4399 101.236 21.8419V36.5029C101.236 37.4389 100.768 37.9069 99.832 37.9069C98.878 37.9069 98.401 37.4389 98.401 36.5029V21.8419C98.401 19.4659 97.996 17.7559 97.186 16.7119C96.376 15.6679 95.026 15.1459 93.136 15.1459H90.895C88.537 15.1459 86.845 15.6679 85.819 16.7119C84.811 17.7559 84.307 19.4659 84.307 21.8419V36.5029C84.307 37.4389 83.839 37.9069 82.903 37.9069C81.949 37.9069 81.472 37.4389 81.472 36.5029V21.8419C81.472 19.4659 81.067 17.7559 80.257 16.7119C79.447 15.6679 78.097 15.1459 76.207 15.1459H73.966C71.608 15.1459 69.916 15.6679 68.89 16.7119C67.882 17.7559 67.378 19.4659 67.378 21.8419V36.5029C67.378 37.4389 66.91 37.9069 65.974 37.9069C65.02 37.9069 64.543 37.4389 64.543 36.5029V13.7689C64.543 12.8329 65.02 12.3649 65.974 12.3649C66.91 12.3649 67.378 12.8329 67.378 13.7689V15.8749C68.17 14.5969 69.106 13.6879 70.186 13.1479C71.284 12.5899 72.67 12.3109 74.344 12.3109H76.207C78.097 12.3109 79.609 12.6439 80.743 13.3099C81.895 13.9579 82.804 15.0289 83.47 16.5229C84.262 15.0289 85.234 13.9579 86.386 13.3099C87.538 12.6439 89.041 12.3109 90.895 12.3109H93.136ZM119.862 37.8799C116.496 37.8799 114.03 37.1059 112.464 35.5579C110.898 33.9919 110.115 31.5349 110.115 28.1869V22.0849C110.115 18.6829 110.898 16.2079 112.464 14.6599C114.03 13.0939 116.496 12.3289 119.862 12.3649H124.29C127.656 12.3649 130.113 13.1479 131.661 14.7139C133.227 16.2619 134.01 18.7189 134.01 22.0849V28.1329C134.01 31.4989 133.227 33.9649 131.661 35.5309C130.113 37.0969 127.656 37.8799 124.29 37.8799H119.862ZM112.95 28.1869C112.95 30.7249 113.454 32.5069 114.462 33.5329C115.488 34.5409 117.288 35.0449 119.862 35.0449H124.29C126.864 35.0449 128.655 34.5409 129.663 33.5329C130.671 32.5069 131.175 30.7069 131.175 28.1329V22.0849C131.175 19.5109 130.671 17.7199 129.663 16.7119C128.655 15.7039 126.864 15.1999 124.29 15.1999H119.862C118.134 15.1819 116.766 15.3889 115.758 15.8209C114.75 16.2529 114.03 16.9729 113.598 17.9809C113.166 18.9889 112.95 20.3569 112.95 22.0849V28.1869ZM152.399 37.8799C149.033 37.8799 146.567 37.0969 145.001 35.5309C143.435 33.9649 142.652 31.4989 142.652 28.1329V22.0849C142.652 18.7189 143.435 16.2619 145.001 14.7139C146.567 13.1479 149.033 12.3649 152.399 12.3649H163.712V1.83488C163.712 0.898881 164.189 0.430881 165.143 0.430881C166.079 0.430881 166.547 0.898881 166.547 1.83488V36.4489C166.547 37.4029 166.079 37.8799 165.143 37.8799C164.189 37.8799 163.712 37.4029 163.712 36.4489V34.1269C162.938 35.3689 161.804 36.3049 160.31 36.9349C158.816 37.5649 156.863 37.8799 154.451 37.8799H152.399ZM152.399 35.0449H154.451C157.259 35.0449 159.5 34.6039 161.174 33.7219C162.866 32.8219 163.712 31.4809 163.712 29.6989V15.1999H152.399C149.825 15.1999 148.025 15.7129 146.999 16.7389C145.991 17.7469 145.487 19.5289 145.487 22.0849V28.1329C145.487 30.7069 145.991 32.5069 146.999 33.5329C148.025 34.5409 149.825 35.0449 152.399 35.0449ZM178.288 26.2159V28.1869C178.288 30.7249 178.792 32.5069 179.8 33.5329C180.826 34.5409 182.626 35.0449 185.2 35.0449H189.628C191.896 35.0449 193.543 34.7569 194.569 34.1809C195.613 33.5869 196.234 32.5699 196.432 31.1299C196.504 30.6799 196.648 30.3379 196.864 30.1039C197.098 29.8699 197.449 29.7529 197.917 29.7529C198.385 29.7529 198.736 29.8879 198.97 30.1579C199.222 30.4099 199.321 30.7699 199.267 31.2379C199.033 33.5059 198.124 35.1799 196.54 36.2599C194.956 37.3399 192.652 37.8799 189.628 37.8799H185.2C181.834 37.8799 179.368 37.1059 177.802 35.5579C176.236 33.9919 175.453 31.5349 175.453 28.1869V22.0849C175.453 18.6829 176.236 16.2079 177.802 14.6599C179.368 13.0939 181.834 12.3289 185.2 12.3649H189.628C192.994 12.3649 195.451 13.1479 196.999 14.7139C198.565 16.2619 199.348 18.7189 199.348 22.0849V24.7849C199.348 25.7389 198.88 26.2159 197.944 26.2159H178.288ZM185.2 15.1999C182.626 15.1639 180.826 15.6589 179.8 16.6849C178.792 17.6929 178.288 19.4929 178.288 22.0849V23.3809H196.513V22.0849C196.513 19.5109 196.009 17.7199 195.001 16.7119C193.993 15.7039 192.202 15.1999 189.628 15.1999H185.2ZM216.144 37.8799C213.588 37.8799 211.707 37.2859 210.501 36.0979C209.313 34.9099 208.719 33.0469 208.719 30.5089V1.83488C208.719 0.898881 209.196 0.430881 210.15 0.430881C211.086 0.430881 211.554 0.898881 211.554 1.83488V30.5089C211.554 32.2549 211.878 33.4519 212.526 34.0999C213.174 34.7299 214.371 35.0449 216.117 35.0449C217.089 35.0449 217.575 35.5129 217.575 36.4489C217.593 37.4029 217.116 37.8799 216.144 37.8799Z" fill="white"/>
</svg>
