<?xml version="1.0" encoding="UTF-8"?>
<svg id="_Слой_2" xmlns="http://www.w3.org/2000/svg" version="1.1" viewBox="0 0 16 16">
  <!-- Generator: Adobe Illustrator 29.5.1, SVG Export Plug-In . SVG Version: 2.1.0 Build 141)  -->
  <defs>
    <style>
      .st0 {
        fill: #e28133;
      }

      .st1 {
        fill: #2d2d2d;
      }

      .st2 {
        fill: #fff;
      }

      .st3 {
        fill: #4fb547;
      }

      .st4 {
        fill: #6d6d6d;
      }

      .st5 {
        fill: #1d820b;
      }
    </style>
  </defs>
  <g>
    <polygon class="st1" points="2.2 15.8 2.2 .2 10.7 .2 13.7 3.3 13.7 15.8 2.2 15.8"/>
    <path class="st4" d="M10.6.5l2.9,2.9v12.1H2.5V.5h8.1M10.8,0H2v16h12V3.2l-3.2-3.2h0Z"/>
  </g>
  <circle class="st0" cx="9.2" cy="4.4" r="1.3"/>
  <g>
    <polygon class="st5" points="6.9 6.4 3.1 10.2 10.7 10.2 6.9 6.4"/>
    <polygon class="st3" points="9.9 7.3 7 10.2 12.9 10.2 9.9 7.3"/>
  </g>
  <g>
    <path class="st2" d="M4.5,11.7h.5v1.7c0,.7-.4,1-.9,1s-.3,0-.4,0v-.4h.4c.3,0,.5-.1.5-.6v-1.7h0Z"/>
    <path class="st2" d="M5.6,11.7h.8c.4,0,.6,0,.8.2.2.1.3.3.3.6s0,.5-.2.6c-.2.2-.5.3-.9.3s-.2,0-.2,0v1h-.5v-2.7h-.1ZM6.1,12.9h.2c.4,0,.6-.2.6-.5s-.2-.5-.5-.5h-.3v.9h0Z"/>
    <path class="st2" d="M9.3,13.2h-1v.8h1.1v.4h-1.6v-2.7h1.6v.4h-1.1v.7h1v.4Z"/>
    <path class="st2" d="M12,14.2c-.2,0-.5.2-.9.2s-.8-.1-1.1-.4c-.2-.2-.4-.6-.4-1,0-.9.6-1.4,1.5-1.4s.6,0,.7.1v.4c-.3,0-.4-.1-.7-.1-.6,0-1,.3-1,1s.4,1,.9,1,.3,0,.4,0v-.7h-.5v-.4h1v1.4h.1Z"/>
  </g>
  <g>
    <polygon class="st1" points="10.8 3.2 10.8 .4 13.6 3.2 10.8 3.2"/>
    <path class="st4" d="M11,1l2,2h-2V1M10.8,0h-.2v3.5h3.5v-.2l-3.3-3.3h0Z"/>
  </g>
</svg>