<svg width="246" height="42" viewBox="0 0 246 42" fill="none" xmlns="http://www.w3.org/2000/svg">
<path d="M26.392 14.6C26.392 15.688 26.2 16.728 25.816 17.72C25.432 18.712 24.888 19.672 24.184 20.6C23.48 21.528 22.648 22.44 21.688 23.336C20.76 24.2 19.736 25.048 18.616 25.88C17.432 26.776 16.056 27.64 14.488 28.472C12.92 29.304 11.336 30.04 9.73602 30.68C8.16802 31.352 6.68002 31.88 5.27202 32.264C3.86402 32.648 2.72802 32.84 1.86402 32.84C1.28802 32.84 0.872021 32.76 0.616021 32.6C0.328021 32.472 0.184021 32.152 0.184021 31.64C0.184021 31.288 0.312021 30.872 0.568021 30.392C0.824021 29.912 1.08002 29.672 1.33602 29.672C1.59202 29.672 1.78402 29.752 1.91202 29.912C2.00802 30.072 2.05602 30.248 2.05602 30.44C2.05602 30.536 2.05602 30.616 2.05602 30.68C2.02402 30.744 2.00802 30.792 2.00802 30.824V30.92C3.22402 30.792 4.85602 30.408 6.90402 29.768C8.92002 29.16 11.336 28.088 14.152 26.552C15.368 25.88 16.568 25.096 17.752 24.2C18.936 23.272 19.992 22.296 20.92 21.272C21.88 20.216 22.648 19.128 23.224 18.008C23.8 16.856 24.088 15.736 24.088 14.648C24.088 13.88 23.688 13.096 22.888 12.296C22.12 11.464 21.128 10.696 19.912 9.992C18.728 9.256 17.432 8.632 16.024 8.12C14.616 7.576 13.304 7.208 12.088 7.016C12.12 7.176 12.168 7.576 12.232 8.216C12.296 8.824 12.392 9.544 12.52 10.376C12.648 11.208 12.792 12.104 12.952 13.064C13.144 13.992 13.352 14.856 13.576 15.656C13.832 16.552 13.992 17.224 14.056 17.672C14.152 18.088 14.216 18.44 14.248 18.728C14.28 19.048 14.328 19.464 14.392 19.976C14.488 20.456 14.552 20.968 14.584 21.512C14.648 22.024 14.696 22.52 14.728 23C14.792 23.448 14.824 23.8 14.824 24.056C14.824 24.344 14.76 24.648 14.632 24.968C14.536 25.288 14.408 25.448 14.248 25.448C13.864 25.448 13.592 25.32 13.432 25.064C13.304 24.776 13.176 24.312 13.048 23.672C12.952 23 12.824 22.136 12.664 21.08C12.504 20.024 12.2 18.728 11.752 17.192C11.112 15.048 10.664 13.032 10.408 11.144C10.152 9.224 9.99202 7.704 9.92802 6.584C9.92802 6.584 9.84802 6.584 9.68802 6.584C9.56002 6.552 9.36802 6.536 9.11202 6.536C8.88802 6.536 8.61602 6.536 8.29602 6.536C8.00802 6.504 7.73602 6.488 7.48002 6.488C6.93602 6.488 6.44002 6.6 5.99202 6.824C5.54402 7.016 5.17602 7.24 4.88802 7.496C4.56802 7.752 4.31202 7.992 4.12002 8.216C3.89602 8.408 3.75202 8.504 3.68802 8.504C3.46402 8.504 3.16002 8.456 2.77602 8.36C2.36002 8.232 2.15202 8.008 2.15202 7.688C2.15202 7.272 2.36002 6.856 2.77602 6.44C3.16002 5.992 3.64002 5.608 4.21602 5.288C4.79202 4.936 5.41602 4.664 6.08802 4.472C6.76002 4.248 7.38402 4.136 7.96002 4.136C8.92002 4.136 10.04 4.264 11.32 4.52C12.6 4.776 13.912 5.128 15.256 5.576C16.632 6.024 17.976 6.568 19.288 7.208C20.632 7.848 21.832 8.552 22.888 9.32C23.944 10.088 24.792 10.92 25.432 11.816C26.072 12.712 26.392 13.64 26.392 14.6Z" fill="white"/>
<path d="M51.7476 24.488C51.7476 24.744 51.6676 24.968 51.5076 25.16C51.3476 25.352 51.1556 25.512 50.9316 25.64C50.7076 25.736 50.4676 25.816 50.2116 25.88C49.9876 25.944 49.7956 25.976 49.6356 25.976C48.9636 25.976 48.3876 25.624 47.9076 24.92C47.4276 24.184 47.0276 23.384 46.7076 22.52C46.3876 21.624 46.1476 20.792 45.9876 20.024C45.8596 19.256 45.7956 18.84 45.7956 18.776C45.6036 19.128 45.3956 19.72 45.1716 20.552C44.9796 21.384 44.7396 22.232 44.4516 23.096C44.1636 23.928 43.7956 24.68 43.3476 25.352C42.9316 25.992 42.3876 26.312 41.7156 26.312C41.3956 26.312 41.0916 26.12 40.8036 25.736C40.5156 25.352 40.2436 24.856 39.9876 24.248C39.7316 23.64 39.4756 22.952 39.2196 22.184C38.9956 21.416 38.7556 20.664 38.4996 19.928C38.2756 19.192 38.0516 18.504 37.8276 17.864C37.6036 17.192 37.3796 16.664 37.1556 16.28C36.9636 16.76 36.7876 17.416 36.6276 18.248C36.4996 19.08 36.3876 19.96 36.2916 20.888C36.1956 21.784 36.1156 22.68 36.0516 23.576C35.9876 24.472 35.9556 25.256 35.9556 25.928C35.9556 26.376 35.8276 26.696 35.5716 26.888C35.3476 27.08 35.1076 27.176 34.8516 27.176C34.4996 27.176 34.1476 26.952 33.7956 26.504C33.4436 26.024 33.0916 25.416 32.7396 24.68C32.3876 23.944 32.0516 23.112 31.7316 22.184C31.4436 21.256 31.1716 20.328 30.9156 19.4C30.6916 18.472 30.5156 17.592 30.3876 16.76C30.2596 15.896 30.1956 15.176 30.1956 14.6C30.1956 14.184 30.2116 13.8 30.2436 13.448C30.2756 13.16 30.2916 12.888 30.2916 12.632C30.3236 12.376 30.3396 12.232 30.3396 12.2C30.3396 12.104 30.3076 12.04 30.2436 12.008C30.2116 11.976 30.1956 11.896 30.1956 11.768C30.1956 11.672 30.3076 11.528 30.5316 11.336C30.7876 11.112 31.0436 11 31.2996 11C31.7476 11 32.0356 11.096 32.1636 11.288C32.3236 11.48 32.4036 11.704 32.4036 11.96C32.4036 12.056 32.3876 12.2 32.3556 12.392C32.3556 12.584 32.3556 13.016 32.3556 13.688C32.3556 14.136 32.4356 14.808 32.5956 15.704C32.7556 16.6 32.9476 17.512 33.1716 18.44C33.3956 19.368 33.6196 20.232 33.8436 21.032C34.0996 21.8 34.3076 22.28 34.4676 22.472C34.5316 22.344 34.5636 22.2 34.5636 22.04C34.5956 21.848 34.6276 21.704 34.6596 21.608L35.1876 17.672C35.3156 16.68 35.5716 15.64 35.9556 14.552C36.3716 13.432 36.8036 12.568 37.2516 11.96C37.4116 11.704 37.5876 11.576 37.7796 11.576C37.9716 11.576 38.1476 11.72 38.3076 12.008C38.8516 12.904 39.2516 13.8 39.5076 14.696C39.7956 15.56 40.0356 16.424 40.2276 17.288C40.4516 18.12 40.6916 18.968 40.9476 19.832C41.2356 20.664 41.6676 21.512 42.2436 22.376C42.4996 21.96 42.8196 21.288 43.2036 20.36C43.5876 19.4 43.9716 18.44 44.3556 17.48C44.7716 16.52 45.1556 15.688 45.5076 14.984C45.8596 14.248 46.1316 13.88 46.3236 13.88C46.4196 13.88 46.5796 13.896 46.8036 13.928C47.0276 13.96 47.1876 13.976 47.2836 13.976C47.5716 13.976 47.8116 14.312 48.0036 14.984C48.1956 15.624 48.3556 16.392 48.4836 17.288C48.6436 18.152 48.7876 19.032 48.9156 19.928C49.0756 20.792 49.2516 21.448 49.4436 21.896C49.5716 22.216 49.7636 22.52 50.0196 22.808C50.2756 23.096 50.5316 23.368 50.7876 23.624C51.1076 23.912 51.4276 24.2 51.7476 24.488Z" fill="white"/>
<path d="M58.4395 6.92C58.4395 6.984 58.3275 7.112 58.1035 7.304C57.8795 7.496 57.6075 7.704 57.2875 7.928C56.9995 8.12 56.6955 8.296 56.3755 8.456C56.0555 8.616 55.7995 8.696 55.6075 8.696C55.4795 8.696 55.3035 8.696 55.0795 8.696C54.8875 8.664 54.6795 8.6 54.4555 8.504C54.2635 8.408 54.0875 8.28 53.9275 8.12C53.7675 7.928 53.6875 7.688 53.6875 7.4C53.6875 6.952 53.8475 6.536 54.1675 6.152C54.4875 5.736 54.9035 5.528 55.4155 5.528C55.5115 5.528 55.7195 5.576 56.0395 5.672C56.3915 5.736 56.7435 5.832 57.0955 5.96C57.4475 6.088 57.7515 6.232 58.0075 6.392C58.2955 6.552 58.4395 6.728 58.4395 6.92ZM60.0235 24.872C60.0235 25.096 59.8475 25.288 59.4955 25.448C59.1755 25.608 58.9355 25.688 58.7755 25.688C58.4555 25.688 58.1675 25.48 57.9115 25.064C57.6555 24.648 57.4315 24.168 57.2395 23.624C57.0475 23.08 56.8875 22.568 56.7595 22.088C56.6315 21.576 56.5355 21.224 56.4715 21.032C56.3755 20.712 56.2475 20.328 56.0875 19.88C55.9275 19.432 55.7675 19 55.6075 18.584C55.4795 18.168 55.3675 17.8 55.2715 17.48C55.1755 17.16 55.1275 16.984 55.1275 16.952C55.1275 16.504 55.2075 16.088 55.3675 15.704C55.5595 15.32 55.7835 15.128 56.0395 15.128C56.3275 15.128 56.6315 15.352 56.9515 15.8C57.2715 16.248 57.5755 16.824 57.8635 17.528C58.1835 18.2 58.4715 18.952 58.7275 19.784C58.9835 20.584 59.2075 21.352 59.3995 22.088C59.5915 22.792 59.7355 23.416 59.8315 23.96C59.9595 24.472 60.0235 24.776 60.0235 24.872Z" fill="white"/>
<path d="M75.7806 7.304C75.3646 7.784 74.7726 8.264 74.0046 8.744C73.2366 9.192 72.4686 9.608 71.7006 9.992C70.9326 10.376 70.2606 10.712 69.6846 11C69.1086 11.256 68.8206 11.432 68.8206 11.528C68.8206 11.624 68.8846 11.912 69.0126 12.392C69.1406 12.872 69.2846 13.448 69.4446 14.12C69.6366 14.76 69.8286 15.432 70.0206 16.136C70.2126 16.84 70.3726 17.464 70.5006 18.008C70.5646 18.328 70.6446 18.744 70.7406 19.256C70.8366 19.768 70.9166 20.28 70.9806 20.792C71.0766 21.304 71.1566 21.768 71.2206 22.184C71.2846 22.568 71.3167 22.776 71.3167 22.808C71.3167 23.288 71.2366 23.784 71.0766 24.296C70.9166 24.808 70.6606 25.064 70.3086 25.064C70.1166 25.064 69.9406 24.984 69.7806 24.824C69.6206 24.664 69.4766 24.488 69.3486 24.296C69.2206 24.072 69.1246 23.864 69.0606 23.672C68.9966 23.48 68.9646 23.336 68.9646 23.24C68.9646 23.176 68.9646 23.08 68.9646 22.952C68.9966 22.824 69.0126 22.68 69.0126 22.52C69.0126 21.912 68.9166 21.032 68.7246 19.88C68.6606 19.528 68.5326 18.984 68.3406 18.248C68.1486 17.512 67.9566 16.76 67.7646 15.992C67.5406 15.096 67.2846 14.12 66.9966 13.064C66.8686 12.616 66.7886 12.392 66.7566 12.392C66.5326 12.392 66.1486 12.536 65.6046 12.824C65.0926 13.08 64.5006 13.416 63.8286 13.832C63.1566 14.216 62.4526 14.648 61.7166 15.128C60.9806 15.576 60.2926 16.008 59.6526 16.424C59.0126 16.808 58.4686 17.144 58.0206 17.432C57.5406 17.688 57.2526 17.816 57.1566 17.816C56.7406 17.816 56.4046 17.672 56.1486 17.384C55.8926 17.096 55.7646 16.776 55.7646 16.424C55.7646 16.232 56.0366 15.96 56.5806 15.608C57.0926 15.224 57.7486 14.808 58.5486 14.36C59.3166 13.912 60.1646 13.448 61.0926 12.968C61.9886 12.488 62.8206 12.056 63.5886 11.672C64.3886 11.288 65.0446 10.968 65.5566 10.712C66.1006 10.456 66.3727 10.328 66.3727 10.328C66.0847 8.856 65.8446 7.544 65.6526 6.392C65.4926 5.4 65.3326 4.488 65.1726 3.656C65.0446 2.824 64.9806 2.376 64.9806 2.312C64.9806 1.896 65.0606 1.592 65.2206 1.4C65.4126 1.176 65.6207 1.064 65.8447 1.064C66.1967 1.064 66.4206 1.304 66.5166 1.784C66.8686 3.512 67.1886 5.048 67.4766 6.392C67.7966 7.736 68.1006 8.824 68.3886 9.656C68.6766 9.592 69.1726 9.416 69.8766 9.128C70.5806 8.808 71.3166 8.472 72.0846 8.12C72.8526 7.768 73.5407 7.464 74.1487 7.208C74.7887 6.92 75.1566 6.776 75.2526 6.776C75.4446 6.776 75.5566 6.84 75.5886 6.968C75.6526 7.096 75.7166 7.208 75.7806 7.304Z" fill="white"/>
<path d="M89.7168 14.36C89.7168 14.584 89.6208 14.776 89.4288 14.936C89.2368 15.064 89.0128 15.176 88.7568 15.272C88.5008 15.368 88.2448 15.448 87.9888 15.512C87.7328 15.544 87.5248 15.56 87.3648 15.56C86.8848 15.56 86.5648 15.528 86.4048 15.464C86.2448 15.4 86.1168 15.368 86.0208 15.368C85.2208 15.368 84.5808 15.432 84.1008 15.56C83.6208 15.688 83.2368 15.896 82.9488 16.184C82.6928 16.472 82.5168 16.84 82.4208 17.288C82.3568 17.704 82.3248 18.216 82.3248 18.824C82.3248 19.848 82.3568 20.664 82.4208 21.272C82.5168 21.88 82.5968 22.376 82.6608 22.76C82.7568 23.144 82.8368 23.448 82.9008 23.672C82.9968 23.864 83.0448 24.056 83.0448 24.248C83.0448 24.504 82.9008 24.776 82.6128 25.064C82.3568 25.352 82.1168 25.496 81.8928 25.496C81.5088 25.496 81.1568 25.16 80.8368 24.488C80.5488 23.784 80.2928 22.968 80.0688 22.04C79.8768 21.08 79.7168 20.136 79.5888 19.208C79.4608 18.28 79.3968 17.576 79.3968 17.096C79.3968 16.552 79.4448 16.04 79.5408 15.56C79.6368 15.048 79.7648 14.616 79.9248 14.264C80.0848 13.88 80.2608 13.576 80.4528 13.352C80.6448 13.128 80.8368 13.016 81.0288 13.016C81.1888 13.016 81.3168 13.08 81.4128 13.208C81.5088 13.304 81.5888 13.432 81.6528 13.592C81.7168 13.72 81.7808 13.848 81.8448 13.976C81.9408 14.072 82.0528 14.12 82.1808 14.12C82.4688 14.12 82.9328 13.976 83.5728 13.688C84.2128 13.4 84.9968 13.256 85.9248 13.256C86.7888 13.256 87.4288 13.288 87.8448 13.352C88.2928 13.384 88.7248 13.48 89.1408 13.64C89.2368 13.672 89.3488 13.752 89.4768 13.88C89.6368 13.976 89.7168 14.136 89.7168 14.36Z" fill="white"/>
<path d="M96.4083 6.92C96.4083 6.984 96.2963 7.112 96.0723 7.304C95.8483 7.496 95.5763 7.704 95.2563 7.928C94.9683 8.12 94.6643 8.296 94.3443 8.456C94.0243 8.616 93.7683 8.696 93.5763 8.696C93.4483 8.696 93.2723 8.696 93.0483 8.696C92.8563 8.664 92.6483 8.6 92.4243 8.504C92.2323 8.408 92.0563 8.28 91.8963 8.12C91.7363 7.928 91.6563 7.688 91.6563 7.4C91.6563 6.952 91.8163 6.536 92.1363 6.152C92.4563 5.736 92.8723 5.528 93.3843 5.528C93.4803 5.528 93.6883 5.576 94.0083 5.672C94.3603 5.736 94.7123 5.832 95.0643 5.96C95.4163 6.088 95.7203 6.232 95.9763 6.392C96.2643 6.552 96.4083 6.728 96.4083 6.92ZM97.9923 24.872C97.9923 25.096 97.8163 25.288 97.4643 25.448C97.1443 25.608 96.9043 25.688 96.7443 25.688C96.4243 25.688 96.1363 25.48 95.8803 25.064C95.6243 24.648 95.4003 24.168 95.2083 23.624C95.0163 23.08 94.8563 22.568 94.7283 22.088C94.6003 21.576 94.5043 21.224 94.4403 21.032C94.3443 20.712 94.2163 20.328 94.0563 19.88C93.8963 19.432 93.7363 19 93.5763 18.584C93.4483 18.168 93.3363 17.8 93.2403 17.48C93.1443 17.16 93.0963 16.984 93.0963 16.952C93.0963 16.504 93.1763 16.088 93.3363 15.704C93.5283 15.32 93.7523 15.128 94.0083 15.128C94.2963 15.128 94.6003 15.352 94.9203 15.8C95.2403 16.248 95.5443 16.824 95.8323 17.528C96.1523 18.2 96.4403 18.952 96.6963 19.784C96.9523 20.584 97.1763 21.352 97.3683 22.088C97.5603 22.792 97.7043 23.416 97.8003 23.96C97.9283 24.472 97.9923 24.776 97.9923 24.872Z" fill="white"/>
<path d="M111.061 6.536C110.645 8.744 110.261 10.872 109.909 12.92C109.749 13.784 109.589 14.696 109.429 15.656C109.269 16.584 109.109 17.512 108.949 18.44C108.821 19.336 108.693 20.2 108.565 21.032C108.469 21.832 108.389 22.568 108.325 23.24C108.197 24.264 108.101 25.432 108.037 26.744C107.973 28.056 107.909 29.304 107.845 30.488C107.781 31.864 107.749 33.256 107.749 34.664C107.749 34.952 107.717 35.272 107.653 35.624C107.589 35.976 107.557 36.328 107.557 36.68C107.557 37 107.477 37.272 107.317 37.496C107.189 37.72 106.981 37.832 106.693 37.832C106.437 37.832 106.229 37.624 106.069 37.208C105.941 36.824 105.829 36.36 105.733 35.816C105.637 35.304 105.573 34.776 105.541 34.232C105.509 33.72 105.493 33.352 105.493 33.128C105.493 32.872 105.493 32.552 105.493 32.168C105.493 31.816 105.509 31.272 105.541 30.536C105.605 29.832 105.685 28.904 105.781 27.752C105.877 26.568 106.021 25.032 106.213 23.144C106.213 23.112 105.989 22.952 105.541 22.664C105.125 22.376 104.597 22.024 103.957 21.608C103.349 21.16 102.709 20.68 102.037 20.168C101.397 19.656 100.853 19.16 100.405 18.68C100.341 18.616 100.245 18.472 100.117 18.248C99.9894 18.024 99.9254 17.752 99.9254 17.432C99.9254 17.272 100.005 17.112 100.165 16.952C100.325 16.76 100.501 16.664 100.693 16.664C100.821 16.664 100.949 16.728 101.077 16.856C101.813 17.496 102.661 18.216 103.621 19.016C104.581 19.784 105.525 20.488 106.453 21.128C106.517 20.552 106.645 19.672 106.837 18.488C107.061 17.304 107.285 16.04 107.509 14.696C107.733 13.32 107.941 11.992 108.133 10.712C108.357 9.432 108.517 8.408 108.613 7.64C108.613 7.512 108.645 7.304 108.709 7.016C108.773 6.728 108.869 6.44 108.997 6.152C109.125 5.864 109.269 5.624 109.429 5.432C109.589 5.208 109.765 5.096 109.957 5.096C110.053 5.096 110.261 5.192 110.581 5.384C110.901 5.544 111.061 5.928 111.061 6.536Z" fill="white"/>
<path d="M147.795 25.592C147.795 27.32 147.395 28.456 146.595 29C145.795 29.576 144.451 29.864 142.563 29.864C141.923 29.864 141.155 29.768 140.259 29.576C139.395 29.416 138.547 29.16 137.715 28.808C136.915 28.456 136.227 28.024 135.651 27.512C135.107 27 134.835 26.408 134.835 25.736C134.835 25.704 134.851 25.544 134.883 25.256C134.947 24.936 135.027 24.616 135.123 24.296C135.219 23.944 135.331 23.64 135.459 23.384C135.619 23.096 135.779 22.952 135.939 22.952C136.259 22.952 136.435 23.048 136.467 23.24C136.531 23.4 136.563 23.688 136.563 24.104C136.563 24.68 136.755 25.192 137.139 25.64C137.555 26.088 138.051 26.472 138.627 26.792C139.203 27.112 139.811 27.352 140.451 27.512C141.123 27.672 141.715 27.752 142.227 27.752C142.643 27.752 143.059 27.736 143.475 27.704C143.923 27.64 144.323 27.528 144.675 27.368C145.027 27.208 145.299 26.984 145.491 26.696C145.715 26.408 145.827 26.024 145.827 25.544C145.827 25.128 145.779 24.712 145.683 24.296C145.619 23.848 145.459 23.272 145.203 22.568C144.979 21.864 144.643 20.968 144.195 19.88C143.747 18.76 143.171 17.32 142.467 15.56C140.963 11.848 139.987 9.08 139.539 7.256C139.091 5.4 138.851 4.408 138.819 4.28C138.563 4.312 138.275 4.392 137.955 4.52C137.635 4.648 137.299 4.792 136.947 4.952C136.627 5.08 136.307 5.208 135.987 5.336C135.667 5.464 135.395 5.576 135.171 5.672C134.499 5.928 133.891 6.232 133.347 6.584C132.803 6.904 132.323 7.224 131.907 7.544C131.491 7.832 131.139 8.088 130.851 8.312C130.563 8.504 130.323 8.6 130.131 8.6C129.651 8.6 129.363 8.376 129.267 7.928C129.171 7.48 129.123 7.096 129.123 6.776C129.123 6.424 129.523 6.024 130.323 5.576C131.123 5.096 132.131 4.616 133.347 4.136C134.563 3.656 135.875 3.192 137.283 2.744C138.723 2.264 140.067 1.848 141.315 1.496C142.563 1.144 143.619 0.855998 144.483 0.631999C145.347 0.407998 145.827 0.295998 145.923 0.295998C146.147 0.295998 146.275 0.359998 146.307 0.487998C146.371 0.615998 146.403 0.727999 146.403 0.823999C146.403 1.016 146.163 1.24 145.683 1.496C145.235 1.752 144.691 2.024 144.051 2.312C143.443 2.6 142.803 2.872 142.131 3.128C141.459 3.384 140.915 3.592 140.499 3.752L139.971 3.944C140.131 4.2 140.275 4.44 140.403 4.664C140.531 4.888 140.659 5.176 140.787 5.528C140.947 5.88 141.123 6.344 141.315 6.92C141.539 7.464 141.843 8.184 142.227 9.08C142.931 10.808 143.619 12.536 144.291 14.264C144.963 15.992 145.555 17.608 146.067 19.112C146.611 20.584 147.027 21.896 147.315 23.048C147.635 24.168 147.795 25.016 147.795 25.592Z" fill="white"/>
<path d="M167.437 15.128C167.437 15.96 167.197 16.76 166.717 17.528C166.269 18.296 165.709 19.016 165.037 19.688C164.365 20.328 163.629 20.936 162.829 21.512C162.029 22.056 161.293 22.536 160.621 22.952C159.981 23.4 159.453 23.768 159.037 24.056C158.621 24.344 158.413 24.568 158.413 24.728C158.413 25.144 158.461 25.736 158.557 26.504C158.653 27.24 158.765 28.056 158.893 28.952C159.053 29.816 159.197 30.712 159.325 31.64C159.485 32.568 159.597 33.416 159.661 34.184C159.661 34.216 159.677 34.36 159.709 34.616C159.773 34.872 159.837 35.16 159.901 35.48C159.997 35.8 160.061 36.088 160.093 36.344C160.157 36.632 160.189 36.808 160.189 36.872C160.189 37.096 160.173 37.336 160.141 37.592C160.141 37.88 160.093 38.136 159.997 38.36C159.933 38.616 159.821 38.824 159.661 38.984C159.501 39.144 159.293 39.224 159.037 39.224C158.685 39.224 158.429 39.064 158.269 38.744C158.109 38.456 158.029 38.168 158.029 37.88C158.029 37.816 158.029 37.752 158.029 37.688C158.061 37.624 158.077 37.544 158.077 37.448C158.077 37.096 157.949 36.152 157.693 34.616C157.437 33.08 157.149 31.24 156.829 29.096C156.509 26.984 156.221 24.712 155.965 22.28C155.709 19.816 155.581 17.496 155.581 15.32C155.581 15.16 155.597 14.984 155.629 14.792C155.661 14.568 155.677 14.376 155.677 14.216C155.357 14.248 154.877 14.392 154.237 14.648C153.629 14.904 153.021 15.224 152.413 15.608C151.805 15.96 151.261 16.344 150.781 16.76C150.333 17.144 150.109 17.496 150.109 17.816H149.773C149.677 17.816 149.565 17.752 149.437 17.624C149.277 17.496 149.149 17.352 149.053 17.192C148.925 17.032 148.813 16.872 148.717 16.712C148.621 16.552 148.573 16.44 148.573 16.376C148.573 15.704 148.973 15.08 149.773 14.504C150.573 13.896 151.565 13.368 152.749 12.92C153.965 12.44 155.293 12.072 156.733 11.816C158.173 11.528 159.533 11.384 160.813 11.384C162.061 11.384 163.101 11.528 163.933 11.816C164.797 12.104 165.485 12.456 165.997 12.872C166.509 13.256 166.877 13.656 167.101 14.072C167.325 14.488 167.437 14.84 167.437 15.128ZM165.085 14.984C165.085 14.664 164.685 14.344 163.885 14.024C163.085 13.672 162.141 13.496 161.053 13.496C160.093 13.496 159.389 13.528 158.941 13.592C158.493 13.656 158.189 13.72 158.029 13.784C157.965 14.296 157.917 14.904 157.885 15.608C157.853 16.312 157.837 17.032 157.837 17.768C157.837 18.536 157.853 19.288 157.885 20.024C157.949 20.728 158.013 21.32 158.077 21.8C158.525 21.512 159.133 21.128 159.901 20.648C160.701 20.136 161.485 19.576 162.253 18.968C163.021 18.328 163.677 17.672 164.221 17C164.797 16.296 165.085 15.624 165.085 14.984Z" fill="white"/>
<path d="M183.467 23.96C183.499 24.024 183.515 24.12 183.515 24.248C183.515 24.44 183.371 24.728 183.083 25.112C182.987 25.24 182.779 25.448 182.459 25.736C182.139 26.024 181.707 26.312 181.163 26.6C180.619 26.888 179.947 27.144 179.147 27.368C178.379 27.592 177.467 27.704 176.411 27.704C175.675 27.704 174.955 27.544 174.251 27.224C173.547 26.872 172.923 26.376 172.379 25.736C171.835 25.064 171.387 24.248 171.035 23.288C170.683 22.296 170.507 21.144 170.507 19.832C170.507 18.584 170.667 17.416 170.987 16.328C171.307 15.24 171.707 14.28 172.187 13.448C172.699 12.616 173.259 11.96 173.867 11.48C174.475 11 175.067 10.76 175.643 10.76C176.155 10.76 176.667 10.872 177.179 11.096C177.723 11.288 178.203 11.544 178.619 11.864C179.067 12.184 179.419 12.552 179.675 12.968C179.931 13.352 180.059 13.752 180.059 14.168C180.059 14.648 179.835 15.144 179.387 15.656C178.971 16.168 178.459 16.648 177.851 17.096C177.243 17.512 176.635 17.864 176.027 18.152C175.419 18.408 174.939 18.536 174.587 18.536C174.395 18.536 174.219 18.456 174.059 18.296C173.931 18.104 173.867 17.88 173.867 17.624C173.867 17.176 174.059 16.824 174.443 16.568C174.859 16.312 175.307 16.088 175.787 15.896C176.267 15.672 176.699 15.416 177.083 15.128C177.499 14.84 177.707 14.44 177.707 13.928C177.707 13.864 177.627 13.704 177.467 13.448C177.307 13.192 176.875 13.064 176.171 13.064C175.851 13.064 175.483 13.256 175.067 13.64C174.651 13.992 174.251 14.488 173.867 15.128C173.483 15.736 173.163 16.472 172.907 17.336C172.651 18.168 172.523 19.08 172.523 20.072C172.523 20.904 172.667 21.656 172.955 22.328C173.275 23 173.675 23.576 174.155 24.056C174.635 24.504 175.195 24.856 175.835 25.112C176.475 25.368 177.131 25.496 177.803 25.496C178.283 25.496 178.795 25.4 179.339 25.208C179.915 24.984 180.443 24.76 180.923 24.536C181.435 24.28 181.867 24.056 182.219 23.864C182.603 23.64 182.843 23.528 182.939 23.528C183.035 23.528 183.131 23.576 183.227 23.672C183.355 23.768 183.435 23.864 183.467 23.96Z" fill="white"/>
<path d="M198.762 24.776C198.762 25.128 198.634 25.368 198.378 25.496C198.122 25.624 197.994 25.8 197.994 26.024C197.962 25.992 198.026 26.168 198.186 26.552C198.346 26.936 198.49 27.336 198.618 27.752C198.842 28.616 199.034 29.368 199.194 30.008C199.386 30.648 199.53 31.24 199.626 31.784C199.754 32.328 199.85 32.872 199.914 33.416C199.978 33.96 200.01 34.568 200.01 35.24C200.01 35.912 199.898 36.6 199.674 37.304C199.45 38.008 199.13 38.632 198.714 39.176C198.298 39.72 197.786 40.168 197.178 40.52C196.57 40.872 195.882 41.048 195.114 41.048C193.93 41.048 192.986 40.808 192.282 40.328C191.61 39.848 191.098 39.304 190.746 38.696C190.394 38.088 190.17 37.48 190.074 36.872C189.978 36.296 189.93 35.912 189.93 35.72C189.93 34.536 190.234 33.352 190.842 32.168C191.45 30.984 192.122 29.912 192.858 28.952C193.594 27.992 194.266 27.192 194.874 26.552C195.482 25.912 195.786 25.544 195.786 25.448L195.258 23.864C194.938 24.248 194.65 24.68 194.394 25.16C194.17 25.608 193.914 26.04 193.626 26.456C193.37 26.84 193.05 27.176 192.666 27.464C192.314 27.72 191.866 27.848 191.322 27.848C190.746 27.848 190.17 27.672 189.594 27.32C189.018 26.968 188.506 26.44 188.058 25.736C187.61 25.032 187.242 24.184 186.954 23.192C186.698 22.2 186.57 21.048 186.57 19.736C186.57 19 186.682 18.088 186.906 17C187.13 15.88 187.482 14.808 187.962 13.784C188.442 12.76 189.034 11.896 189.738 11.192C190.474 10.456 191.322 10.088 192.282 10.088C192.826 10.088 193.322 10.184 193.77 10.376C194.25 10.568 194.49 10.808 194.49 11.096C194.49 11.352 194.442 11.56 194.346 11.72C194.25 11.88 194.122 12.04 193.962 12.2C193.866 12.136 193.754 12.072 193.626 12.008C193.53 11.944 193.386 11.912 193.194 11.912C192.49 11.912 191.85 12.232 191.274 12.872C190.73 13.48 190.266 14.248 189.882 15.176C189.498 16.072 189.194 17.016 188.97 18.008C188.778 19 188.682 19.864 188.682 20.6C188.682 22.232 188.954 23.48 189.498 24.344C190.042 25.176 190.618 25.592 191.226 25.592C191.514 25.592 191.818 25.384 192.138 24.968C192.49 24.52 192.81 24.04 193.098 23.528C193.418 22.984 193.69 22.472 193.914 21.992C194.138 21.512 194.266 21.224 194.298 21.128C194.362 20.808 194.394 20.44 194.394 20.024C194.394 19.672 194.378 19.288 194.346 18.872C194.346 18.424 194.346 17.976 194.346 17.528C194.346 16.696 194.41 16.008 194.538 15.464C194.666 14.888 194.986 14.6 195.498 14.6C196.01 14.6 196.378 14.76 196.602 15.08C196.826 15.368 196.938 15.72 196.938 16.136C196.938 16.424 196.922 16.776 196.89 17.192C196.89 17.576 196.89 17.96 196.89 18.344C196.89 18.696 196.874 19.016 196.842 19.304C196.842 19.56 196.842 19.72 196.842 19.784C196.842 19.976 196.858 20.264 196.89 20.648C196.954 21 197.002 21.368 197.034 21.752C197.098 22.104 197.146 22.44 197.178 22.76C197.242 23.048 197.29 23.24 197.322 23.336C197.354 23.432 197.402 23.576 197.466 23.768C197.53 23.96 197.594 24.104 197.658 24.2C197.69 24.136 197.754 24.072 197.85 24.008C197.946 23.912 198.026 23.832 198.09 23.768C198.25 23.864 198.394 24.056 198.522 24.344C198.682 24.6 198.762 24.744 198.762 24.776ZM197.13 30.872C197.002 30.36 196.858 29.848 196.698 29.336C196.538 28.824 196.378 28.296 196.218 27.752C195.674 28.424 195.146 29.064 194.634 29.672C194.154 30.312 193.706 30.936 193.29 31.544C192.906 32.152 192.586 32.776 192.33 33.416C192.106 34.088 191.994 34.792 191.994 35.528C191.994 36.52 192.266 37.336 192.81 37.976C193.386 38.616 194.01 38.936 194.682 38.936C195.418 38.936 196.106 38.664 196.746 38.12C197.418 37.576 197.754 36.792 197.754 35.768C197.754 35.096 197.738 34.536 197.706 34.088C197.674 33.64 197.626 33.24 197.562 32.888C197.53 32.568 197.466 32.248 197.37 31.928C197.306 31.64 197.226 31.288 197.13 30.872Z" fill="white"/>
<path d="M216.092 23.96C216.124 24.024 216.14 24.12 216.14 24.248C216.14 24.44 215.996 24.728 215.708 25.112C215.612 25.24 215.404 25.448 215.084 25.736C214.764 26.024 214.332 26.312 213.788 26.6C213.244 26.888 212.572 27.144 211.772 27.368C211.004 27.592 210.092 27.704 209.036 27.704C208.3 27.704 207.58 27.544 206.876 27.224C206.172 26.872 205.548 26.376 205.004 25.736C204.46 25.064 204.012 24.248 203.66 23.288C203.308 22.296 203.132 21.144 203.132 19.832C203.132 18.584 203.292 17.416 203.612 16.328C203.932 15.24 204.332 14.28 204.812 13.448C205.324 12.616 205.884 11.96 206.492 11.48C207.1 11 207.692 10.76 208.268 10.76C208.78 10.76 209.292 10.872 209.804 11.096C210.348 11.288 210.828 11.544 211.244 11.864C211.692 12.184 212.044 12.552 212.3 12.968C212.556 13.352 212.684 13.752 212.684 14.168C212.684 14.648 212.46 15.144 212.012 15.656C211.596 16.168 211.084 16.648 210.476 17.096C209.868 17.512 209.26 17.864 208.652 18.152C208.044 18.408 207.564 18.536 207.212 18.536C207.02 18.536 206.844 18.456 206.684 18.296C206.556 18.104 206.492 17.88 206.492 17.624C206.492 17.176 206.684 16.824 207.068 16.568C207.484 16.312 207.932 16.088 208.412 15.896C208.892 15.672 209.324 15.416 209.708 15.128C210.124 14.84 210.332 14.44 210.332 13.928C210.332 13.864 210.252 13.704 210.092 13.448C209.932 13.192 209.5 13.064 208.796 13.064C208.476 13.064 208.108 13.256 207.692 13.64C207.276 13.992 206.876 14.488 206.492 15.128C206.108 15.736 205.788 16.472 205.532 17.336C205.276 18.168 205.148 19.08 205.148 20.072C205.148 20.904 205.292 21.656 205.58 22.328C205.9 23 206.3 23.576 206.78 24.056C207.26 24.504 207.82 24.856 208.46 25.112C209.1 25.368 209.756 25.496 210.428 25.496C210.908 25.496 211.42 25.4 211.964 25.208C212.54 24.984 213.068 24.76 213.548 24.536C214.06 24.28 214.492 24.056 214.844 23.864C215.228 23.64 215.468 23.528 215.564 23.528C215.66 23.528 215.756 23.576 215.852 23.672C215.98 23.768 216.06 23.864 216.092 23.96Z" fill="white"/>
<path d="M230.811 14.36C230.811 14.584 230.715 14.776 230.523 14.936C230.331 15.064 230.107 15.176 229.851 15.272C229.595 15.368 229.339 15.448 229.083 15.512C228.827 15.544 228.619 15.56 228.459 15.56C227.979 15.56 227.659 15.528 227.499 15.464C227.339 15.4 227.211 15.368 227.115 15.368C226.315 15.368 225.675 15.432 225.195 15.56C224.715 15.688 224.331 15.896 224.043 16.184C223.787 16.472 223.611 16.84 223.515 17.288C223.451 17.704 223.419 18.216 223.419 18.824C223.419 19.848 223.451 20.664 223.515 21.272C223.611 21.88 223.691 22.376 223.755 22.76C223.851 23.144 223.931 23.448 223.995 23.672C224.091 23.864 224.139 24.056 224.139 24.248C224.139 24.504 223.995 24.776 223.707 25.064C223.451 25.352 223.211 25.496 222.987 25.496C222.603 25.496 222.251 25.16 221.931 24.488C221.643 23.784 221.387 22.968 221.163 22.04C220.971 21.08 220.811 20.136 220.683 19.208C220.555 18.28 220.491 17.576 220.491 17.096C220.491 16.552 220.539 16.04 220.635 15.56C220.731 15.048 220.859 14.616 221.019 14.264C221.179 13.88 221.355 13.576 221.547 13.352C221.739 13.128 221.931 13.016 222.123 13.016C222.283 13.016 222.411 13.08 222.507 13.208C222.603 13.304 222.683 13.432 222.747 13.592C222.811 13.72 222.875 13.848 222.939 13.976C223.035 14.072 223.147 14.12 223.275 14.12C223.563 14.12 224.027 13.976 224.667 13.688C225.307 13.4 226.091 13.256 227.019 13.256C227.883 13.256 228.523 13.288 228.939 13.352C229.387 13.384 229.819 13.48 230.235 13.64C230.331 13.672 230.443 13.752 230.571 13.88C230.731 13.976 230.811 14.136 230.811 14.36Z" fill="white"/>
<path d="M245.47 22.664C245.47 23.208 245.278 23.688 244.894 24.104C244.542 24.488 244.078 24.824 243.502 25.112C242.958 25.368 242.35 25.576 241.678 25.736C241.006 25.896 240.366 26.024 239.758 26.12C239.15 26.184 238.606 26.232 238.126 26.264C237.678 26.264 237.39 26.264 237.262 26.264C236.558 26.264 236.014 26.152 235.63 25.928C235.246 25.704 235.054 25.304 235.054 24.728C235.054 24.536 235.07 24.376 235.102 24.248C235.134 24.088 235.262 24.008 235.486 24.008C235.582 24.008 235.742 24.04 235.966 24.104C236.19 24.136 236.366 24.152 236.494 24.152C236.622 24.152 237.022 24.136 237.694 24.104C238.398 24.04 239.134 23.944 239.902 23.816C240.702 23.688 241.406 23.512 242.014 23.288C242.654 23.032 242.974 22.712 242.974 22.328C242.974 22.264 242.638 22.072 241.966 21.752C241.326 21.4 240.35 20.824 239.038 20.024C238.014 19.384 237.294 18.744 236.878 18.104C236.462 17.432 236.254 16.536 236.254 15.416C236.254 14.712 236.398 14.136 236.686 13.688C237.006 13.24 237.422 12.888 237.934 12.632C238.478 12.376 239.086 12.2 239.758 12.104C240.462 11.976 241.198 11.912 241.966 11.912C242.03 11.912 242.222 11.944 242.542 12.008C242.894 12.072 243.262 12.184 243.646 12.344C244.03 12.472 244.366 12.648 244.654 12.872C244.974 13.064 245.134 13.288 245.134 13.544C245.134 13.608 245.07 13.704 244.942 13.832C244.846 13.96 244.67 14.2 244.414 14.552C244.318 14.52 244.142 14.472 243.886 14.408C243.662 14.344 243.39 14.28 243.07 14.216C242.782 14.12 242.478 14.056 242.158 14.024C241.838 13.96 241.582 13.928 241.39 13.928C240.558 13.928 239.886 14.088 239.374 14.408C238.862 14.696 238.606 15.272 238.606 16.136C238.606 16.552 238.766 16.936 239.086 17.288C239.438 17.64 239.87 17.976 240.382 18.296C240.894 18.584 241.438 18.888 242.014 19.208C242.622 19.496 243.182 19.816 243.694 20.168C244.206 20.52 244.622 20.904 244.942 21.32C245.294 21.704 245.47 22.152 245.47 22.664Z" fill="white"/>
</svg>
