<?xml version="1.0" encoding="UTF-8"?>
<svg id="_Слой_2" xmlns="http://www.w3.org/2000/svg" version="1.1" viewBox="0 0 16 16">
  <!-- Generator: Adobe Illustrator 29.8.3, SVG Export Plug-In . SVG Version: 2.1.1 Build 3)  -->
  <defs>
    <style>
      .st0 {
        fill: #fff;
      }

      .st1 {
        fill: #0c0716;
      }
    </style>
  </defs>
  <rect class="st1" y="0" width="16" height="16" rx="2.7" ry="2.7"/>
  <path class="st0" d="M8.1,12.6h0c.1-.2.2-.4.4-.6.2-.3.4-.6.6-1l.2-.4c.3-.5.5-1.1.8-1.8.1-.3.3-.7.4-1,.1-.3.3-.6.4-1,.1-.3.2-.5.3-.7v-.3c.2-.1.3-.3.3-.3,0-.1.1-.2.1-.4,0,0,0,0,0,0,0,0,.2,0,.3.1.3.1.5.2.8.3,0,0,.2,0,.2,0,.2,0,.3.1.4.1.2,0,.5.1.7,0h0c0-.1.3-.4,0-.7s0,0-.3-.2l-.3-.2c-.3-.2-.7-.4-1.1-.6-.5-.3-1-.5-1.4-.8l-.5-.2c-.3-.2-.6-.3-.9-.4-.4-.2-.8-.4-1.2-.4-.2,0-.7-.2-1,0s-.1.1-.2.2c0,0,0,0-.2.2-.3.4,0,.9.6,1,0,0,.1,0,.2,0,0,0,.1,0,.3,0,.2,0,.4,0,.6,0,.2,0,.4.1.7.2h0s0,0,.2.1c0,0,.2,0,.3.1,0,0,0,0,.1,0,0,0,.1,0,.2,0,0,0,0,0,0,0h0c0,.2-.2.5-.4.8-.4.6-.8,1.6-1.5,3-.3.6-.5,1.2-.7,1.6,0,.2-.1.3-.2.5,0,.2-.2.4-.3.5-.1.3-.2.4-.3.5,0,0-.1.2-.2.3s-.2.1-.2.2c0,0-.1,0-.2,0,0,0-.1,0-.2,0,0,0-.1,0-.2-.1l-.3-.3c-.1-.1-.3-.3-.4-.5-.1-.2-.2-.3-.2-.5,0-.2,0-.5,0-.7,0-.1,0-.2.1-.3l.2-.2c0,0,.3-.3,0-.7s-.4-.1-.6,0c0,0-.3,0-.4.2h0c-.1.1-.2.2-.3.3l.2.2h0s0,0,0,0h0c0,0-.2-.2-.2-.2h-.1c-.2.3-.4.7-.4,1.1,0,.3,0,.6.2,1,.1.4.3.7.5.9h0c0,.3.1.4.5.8s1,.8,1.5.9c.5.1,1-.1,1.5-.7l.2-.3Z"/>
</svg>